<?xml version="1.0" encoding="utf-8"?>
<!-- Generator: Adobe Illustrator 14.0.0, SVG Export Plug-In . SVG Version: 6.00 Build 43363)  -->
<!DOCTYPE svg PUBLIC "-//W3C//DTD SVG 1.1//EN" "http://www.w3.org/Graphics/SVG/1.1/DTD/svg11.dtd">
<svg version="1.1" id="Layer_1" xmlns="http://www.w3.org/2000/svg" xmlns:xlink="http://www.w3.org/1999/xlink" x="0px" y="0px"
	 width="50px" height="50px" viewBox="0 0 50 50" enable-background="new 0 0 50 50" xml:space="preserve">
<g id="XMLID_1_">
	<g>
		<path d="M25,0c13.811,0,25,11.19,25,25S38.811,50,25,50C11.19,50,0,38.811,0,25S11.19,0,25,0z M32.53,25.01l0.69-6.79H27.14v-3.99
			c0-1.5,0.99-1.85,1.69-1.85c0.7,0,4.3,0,4.3,0v-6.59l-5.919-0.02c-6.57,0-8.06,4.91-8.06,8.06v4.39h-3.8v6.79h3.8
			c0,8.72,0,19.22,0,19.22h7.99c0,0,0-10.61,0-19.22H32.53z"/>
		<path fill="#FFFFFF" d="M33.221,18.22l-0.69,6.79h-5.39c0,8.61,0,19.22,0,19.22h-7.99c0,0,0-10.5,0-19.22h-3.8v-6.79h3.8v-4.39
			c0-3.15,1.49-8.06,8.06-8.06l5.919,0.02v6.59c0,0-3.6,0-4.3,0c-0.7,0-1.69,0.35-1.69,1.85v3.99H33.221z"/>
	</g>
	<g>
	</g>
</g>
</svg>
