<?xml version="1.0" encoding="utf-8"?>
<!-- Generator: Adobe Illustrator 14.0.0, SVG Export Plug-In . SVG Version: 6.00 Build 43363)  -->
<!DOCTYPE svg PUBLIC "-//W3C//DTD SVG 1.1//EN" "http://www.w3.org/Graphics/SVG/1.1/DTD/svg11.dtd">
<svg version="1.1" id="Layer_1" xmlns="http://www.w3.org/2000/svg" xmlns:xlink="http://www.w3.org/1999/xlink" x="0px" y="0px"
	 width="50.001px" height="50px" viewBox="0 0 50.001 50" enable-background="new 0 0 50.001 50" xml:space="preserve">
<g id="XMLID_1_">
	<g>
		<path d="M42.591,11.46c-1.39,0.87-2.93,1.51-4.57,1.85c-1.319-1.48-3.189-2.41-5.26-2.41c-3.98,0-7.21,3.41-7.21,7.63
			c0,0.59,0.06,1.17,0.19,1.73c-5.99-0.31-11.3-3.35-14.86-7.96c-0.62,1.12-0.97,2.43-0.97,3.83c0,2.65,1.27,4.98,3.2,6.35
			c-1.18-0.04-2.29-0.39-3.26-0.96c0,0.03,0,0.07,0,0.1c0,3.69,2.48,6.78,5.78,7.48c-0.61,0.17-1.24,0.26-1.9,0.26
			c-0.46,0-0.92-0.04-1.36-0.13c0.92,3.029,3.58,5.229,6.74,5.29c-2.47,2.05-5.58,3.27-8.95,3.27c-0.59,0-1.16-0.04-1.72-0.11
			c3.19,2.171,6.97,3.431,11.04,3.431c13.259,0,20.509-11.62,20.509-21.7c0-0.33-0.01-0.66-0.02-0.99c1.41-1.07,2.63-2.42,3.59-3.95
			c-1.29,0.61-2.68,1.02-4.13,1.21C40.911,14.73,42.061,13.24,42.591,11.46z M25,0c13.81,0,25,11.2,25,25c0,13.811-11.19,25-25,25
			C11.191,50,0,38.811,0,25C0,11.2,11.191,0,25,0z"/>
		<path fill="#FFFFFF" d="M43.561,14.47c-0.96,1.53-2.18,2.88-3.59,3.95c0.01,0.33,0.02,0.66,0.02,0.99
			c0,10.08-7.25,21.7-20.509,21.7c-4.07,0-7.85-1.26-11.04-3.431c0.56,0.07,1.13,0.11,1.72,0.11c3.37,0,6.48-1.22,8.95-3.27
			c-3.16-0.061-5.82-2.261-6.74-5.29c0.44,0.09,0.9,0.13,1.36,0.13c0.66,0,1.29-0.09,1.9-0.26c-3.3-0.7-5.78-3.791-5.78-7.48
			c0-0.03,0-0.07,0-0.1c0.97,0.57,2.08,0.92,3.26,0.96c-1.93-1.37-3.2-3.7-3.2-6.35c0-1.4,0.35-2.71,0.97-3.83
			c3.56,4.61,8.87,7.65,14.86,7.96c-0.13-0.56-0.19-1.14-0.19-1.73c0-4.22,3.23-7.63,7.21-7.63c2.07,0,3.94,0.93,5.26,2.41
			c1.641-0.34,3.181-0.98,4.57-1.85c-0.53,1.78-1.68,3.27-3.16,4.22C40.881,15.49,42.271,15.08,43.561,14.47z"/>
	</g>
	<g>
	</g>
</g>
</svg>
