<?xml version="1.0" encoding="utf-8"?>
<!-- Generator: Adobe Illustrator 14.0.0, SVG Export Plug-In . SVG Version: 6.00 Build 43363)  -->
<!DOCTYPE svg PUBLIC "-//W3C//DTD SVG 1.1//EN" "http://www.w3.org/Graphics/SVG/1.1/DTD/svg11.dtd">
<svg version="1.1" id="Layer_1" xmlns="http://www.w3.org/2000/svg" xmlns:xlink="http://www.w3.org/1999/xlink" x="0px" y="0px"
	 width="50px" height="50px" viewBox="0 0 50 50" enable-background="new 0 0 50 50" xml:space="preserve">
<g id="XMLID_1_">
	<g>
		<path d="M25,0.09c13.81,0,25,11.19,25,25s-11.19,25-25,25S0,38.9,0,25.09S11.19,0.09,25,0.09z M37.82,28.63
			c5.48-7.66,6.98-13.71,2.86-17.03c-0.98-0.4-9.97-5.14-13.9,7.66c10.48-3.43,1.79,12.07-1.05,11.96
			c-4.19-0.17-1.56-20.8-9.33-20.42c-4.44,0.21-11.09,8.36-11.09,8.36l1.71,2.22c0,0,1.51-0.91,2.92-1.72
			c0.64-0.36,1.9,0.36,3.51,5.45c1.99,6.3,3.25,16.93,8.44,17.63C27.88,42.74,33.65,34.48,37.82,28.63z"/>
		<path fill="#FFFFFF" d="M40.68,11.6c4.12,3.32,2.62,9.37-2.86,17.03c-4.17,5.85-9.94,14.11-15.93,14.11
			c-5.19-0.7-6.45-11.33-8.44-17.63c-1.61-5.09-2.87-5.81-3.51-5.45c-1.41,0.81-2.92,1.72-2.92,1.72l-1.71-2.22
			c0,0,6.65-8.15,11.09-8.36c7.77-0.38,5.14,20.25,9.33,20.42c2.84,0.11,11.53-15.39,1.05-11.96C30.71,6.46,39.7,11.2,40.68,11.6z"
			/>
	</g>
	<g>
	</g>
</g>
</svg>
