<?xml version="1.0" encoding="utf-8"?>
<!-- Generator: Adobe Illustrator 14.0.0, SVG Export Plug-In . SVG Version: 6.00 Build 43363)  -->
<!DOCTYPE svg PUBLIC "-//W3C//DTD SVG 1.1//EN" "http://www.w3.org/Graphics/SVG/1.1/DTD/svg11.dtd">
<svg version="1.1" id="Layer_1" xmlns="http://www.w3.org/2000/svg" xmlns:xlink="http://www.w3.org/1999/xlink" x="0px" y="0px"
	 width="60px" height="60px" viewBox="0 0 60 60" enable-background="new 0 0 60 60" xml:space="preserve">
<g id="XMLID_1_">
	<g>
		<path fill="#BAAB52" d="M58.05,35.59v22.46L1.5,43.55v-24.8L58.05,35.59z M44.83,43.94c0-2.61-2.11-4.721-4.72-4.721
			c-2.61,0-4.721,2.11-4.721,4.721c0,2.6,2.11,4.72,4.721,4.72C42.72,48.66,44.83,46.54,44.83,43.94z M27.71,32.28
			c0-1.51-1.23-2.74-2.73-2.74c-1.51,0-2.73,1.23-2.73,2.74c0,1.5,1.22,2.729,2.73,2.729C26.48,35.01,27.71,33.78,27.71,32.28z
			 M15.59,35.59c0-1.92-1.56-3.47-3.47-3.47c-1.92,0-3.47,1.55-3.47,3.47s1.55,3.47,3.47,3.47C14.03,39.06,15.59,37.51,15.59,35.59z
			"/>
		<path fill="#F9EA67" d="M58.05,35.59L1.5,18.75L23.1,7.5L58.05,35.59z M38.95,24.37c0-1.44-1.3-2.6-2.91-2.6
			c-1.6,0-2.9,1.16-2.9,2.6c0,1.43,1.301,2.6,2.9,2.6C37.65,26.97,38.95,25.8,38.95,24.37z M25.98,13.52c0-1.58-1.51-2.85-3.37-2.85
			c-1.86,0-3.37,1.27-3.37,2.85s1.51,2.86,3.37,2.86C24.47,16.38,25.98,15.1,25.98,13.52z M24.75,21.26c0-0.68-0.82-1.22-1.83-1.22
			c-1.02,0-1.84,0.54-1.84,1.22c0,0.68,0.82,1.23,1.84,1.23C23.93,22.49,24.75,21.94,24.75,21.26z"/>
		<path fill="#7C6F32" d="M40.11,39.22c2.609,0,4.72,2.11,4.72,4.721c0,2.6-2.11,4.72-4.72,4.72c-2.61,0-4.721-2.12-4.721-4.72
			C35.39,41.33,37.5,39.22,40.11,39.22z"/>
		<path fill="#938342" d="M36.04,21.77c1.61,0,2.91,1.16,2.91,2.6c0,1.43-1.3,2.6-2.91,2.6c-1.6,0-2.9-1.17-2.9-2.6
			C33.14,22.93,34.44,21.77,36.04,21.77z"/>
		<path fill="#7C6F32" d="M24.98,29.54c1.5,0,2.73,1.23,2.73,2.74c0,1.5-1.23,2.729-2.73,2.729c-1.51,0-2.73-1.229-2.73-2.729
			C22.25,30.77,23.47,29.54,24.98,29.54z"/>
		<path fill="#938342" d="M22.61,10.67c1.86,0,3.37,1.27,3.37,2.85s-1.51,2.86-3.37,2.86c-1.86,0-3.37-1.28-3.37-2.86
			S20.75,10.67,22.61,10.67z"/>
		<path fill="#938342" d="M22.92,20.04c1.01,0,1.83,0.54,1.83,1.22c0,0.68-0.82,1.23-1.83,1.23c-1.02,0-1.84-0.55-1.84-1.23
			C21.08,20.58,21.9,20.04,22.92,20.04z"/>
		<path fill="#7C6F32" d="M12.12,32.12c1.91,0,3.47,1.55,3.47,3.47s-1.56,3.47-3.47,3.47c-1.92,0-3.47-1.55-3.47-3.47
			S10.2,32.12,12.12,32.12z"/>
	</g>
	<g>
		<polygon fill="none" stroke="#000000" points="1.5,18.75 23.1,7.5 58.05,35.59 		"/>
		<polyline fill="none" stroke="#000000" points="1.5,18.75 1.5,43.55 58.05,58.05 58.05,35.59 58.05,34.98 		"/>
		<path fill="none" stroke="#000000" d="M12.12,32.12c-1.92,0-3.47,1.55-3.47,3.47s1.55,3.47,3.47,3.47c1.91,0,3.47-1.55,3.47-3.47
			S14.03,32.12,12.12,32.12z"/>
		<path fill="none" stroke="#000000" d="M40.11,39.22c-2.61,0-4.721,2.11-4.721,4.721c0,2.6,2.11,4.72,4.721,4.72
			c2.609,0,4.72-2.12,4.72-4.72C44.83,41.33,42.72,39.22,40.11,39.22z"/>
		<path fill="none" stroke="#000000" d="M24.98,29.54c-1.51,0-2.73,1.23-2.73,2.74c0,1.5,1.22,2.729,2.73,2.729
			c1.5,0,2.73-1.229,2.73-2.729C27.71,30.77,26.48,29.54,24.98,29.54z"/>
		<path fill="none" stroke="#000000" d="M22.61,10.67c-1.86,0-3.37,1.27-3.37,2.85s1.51,2.86,3.37,2.86c1.86,0,3.37-1.28,3.37-2.86
			S24.47,10.67,22.61,10.67z"/>
		<path fill="none" stroke="#000000" d="M22.92,20.04c-1.02,0-1.84,0.54-1.84,1.22c0,0.68,0.82,1.23,1.84,1.23
			c1.01,0,1.83-0.55,1.83-1.23C24.75,20.58,23.93,20.04,22.92,20.04z"/>
		<path fill="none" stroke="#000000" d="M36.04,21.77c-1.6,0-2.9,1.16-2.9,2.6c0,1.43,1.301,2.6,2.9,2.6c1.61,0,2.91-1.17,2.91-2.6
			C38.95,22.93,37.65,21.77,36.04,21.77z"/>
	</g>
</g>
</svg>
