<?xml version="1.0" encoding="utf-8"?>
<!-- Generator: Adobe Illustrator 14.0.0, SVG Export Plug-In . SVG Version: 6.00 Build 43363)  -->
<!DOCTYPE svg PUBLIC "-//W3C//DTD SVG 1.1//EN" "http://www.w3.org/Graphics/SVG/1.1/DTD/svg11.dtd">
<svg version="1.1" id="Layer_1" xmlns="http://www.w3.org/2000/svg" xmlns:xlink="http://www.w3.org/1999/xlink" x="0px" y="0px"
	 width="50px" height="50px" viewBox="0 0 50 50" enable-background="new 0 0 50 50" xml:space="preserve">
<g id="XMLID_1_">
	<g>
		<path d="M20.44,24.56c0,0-0.29,1.21-0.68,2.86l-2.69-0.1c0.06-0.25,0.12-0.49,0.16-0.64c0.15-0.551,0.09-0.74-0.32-1.23
			c-0.89-1.04-1.45-2.4-1.45-4.32c0-5.56,4.16-10.55,10.84-10.55c5.92,0,9.17,3.62,9.17,8.44c0,6.36-2.81,11.72-6.979,11.72
			c-2.31,0-4.03-1.91-3.48-4.25c0.66-2.79,1.94-5.8,1.94-7.81c0-1.81-0.97-3.31-2.97-3.31c-2.35,0-4.25,2.44-4.25,5.7
			C19.73,23.15,20.44,24.56,20.44,24.56z"/>
		<path fill="#FFFFFF" d="M22.04,37.851c-0.96,3.46-3.76,6.93-3.98,7.21c-0.15,0.199-0.49,0.14-0.52-0.13
			c-0.06-0.44-0.78-4.801,0.06-8.37c0.28-1.17,1.41-5.98,2.16-9.141c0.39-1.649,0.68-2.86,0.68-2.86s-0.71-1.41-0.71-3.49
			c0-3.26,1.9-5.7,4.25-5.7c2,0,2.97,1.5,2.97,3.31c0,2.01-1.28,5.02-1.94,7.81c-0.55,2.34,1.17,4.25,3.48,4.25
			c4.17,0,6.979-5.36,6.979-11.72c0-4.82-3.25-8.44-9.17-8.44c-6.68,0-10.84,4.99-10.84,10.55c0,1.92,0.56,3.28,1.45,4.32
			c0.41,0.49,0.47,0.68,0.32,1.23c-0.04,0.149-0.1,0.39-0.16,0.64c-0.11,0.42-0.23,0.89-0.29,1.13c-0.15,0.56-0.6,0.76-1.11,0.55
			c-3.07-1.25-4.51-4.63-4.51-8.41c0-6.26,5.28-13.77,15.75-13.77c8.41,0,13.95,6.09,13.95,12.62c0,8.649-4.811,15.1-11.89,15.1
			c-2.38,0-4.62-1.28-5.38-2.74C23.59,31.8,22.31,36.87,22.04,37.851z"/>
		<path d="M19.76,27.42c-0.75,3.16-1.88,7.971-2.16,9.141c-0.84,3.569-0.12,7.93-0.06,8.37c0.03,0.27,0.37,0.329,0.52,0.13
			c0.22-0.28,3.02-3.75,3.98-7.21c0.27-0.98,1.55-6.051,1.55-6.051c0.76,1.46,3,2.74,5.38,2.74c7.08,0,11.89-6.45,11.89-15.1
			c0-6.53-5.54-12.62-13.95-12.62c-10.47,0-15.75,7.51-15.75,13.77c0,3.78,1.44,7.16,4.51,8.41c0.51,0.21,0.96,0.01,1.11-0.55
			c0.06-0.24,0.18-0.71,0.29-1.13L19.76,27.42z M25,0c13.81,0,25,11.19,25,25c0,13.811-11.19,25-25,25C11.19,50,0,38.811,0,25
			C0,11.19,11.19,0,25,0z"/>
	</g>
	<g>
	</g>
</g>
</svg>
